<?xml version="1.0" encoding="UTF-8"?>
<svg xmlns="http://www.w3.org/2000/svg"
     width="1014" height="1014" viewBox="130 0 1014 1014"
     preserveAspectRatio="xMidYMid meet" shape-rendering="geometricPrecision">
  <title>Website logo</title>
  <rect x="0" y="0" width="1274" height="1014" fill="#000000"/>
  <g fill="#FFFFFF">
    <path d="M0 0 C31.41621 7.46932 60.82272 19.01943 89.875 32.99219 C90.38571 33.23655 90.38571 33.23655 92.97021 34.47314 C95.47283 35.68394 97.95913 36.92015 100.4375 38.17969 C101.12183 38.51758 101.80616 38.85548 102.51123 39.20361 C104.31641 40.16016 104.31641 40.16016 106.875 41.99219 C106.99132 42.61593 107.10764 43.23967 107.22748 43.88231 C107.16932 44.23044 107.16932 44.23044 106.875 45.99219 C105.61002 47.76086 105.61002 47.76086 103.79393 49.5822 C103.10669 50.28111 102.41944 50.98002 101.71137 51.70011 C100.94369 52.46023 100.17601 53.22035 99.38507 54.00351 C98.98221 54.4102 98.98221 54.4102 96.94349 56.46827 C94.7027 58.7297 92.44952 60.97843 90.19412 63.22528 C87.7656 65.64888 85.34857 68.08391 82.93002 70.51746 C78.18884 75.28417 73.43672 80.03983 68.68042 84.79146 C64.81666 88.65166 60.95643 92.51537 57.09872 96.38161 C56.55035 96.93117 56.00198 97.48072 55.437 98.04694 C54.32313 99.16322 53.20927 100.27952 52.09541 101.39581 C41.64321 111.86977 31.17799 122.33065 20.70881 132.78764 C11.12101 142.3651 1.54975 151.95889 -8.01386 161.56051 C-17.82457 171.40991 -27.64628 181.24821 -37.48012 191.07452 C-43.0047 196.59527 -48.52474 202.12038 -54.03329 207.65712 C-58.72164 212.36921 -63.42023 217.07079 -68.13261 221.75886 C-70.5387 224.15311 -72.93961 226.55203 -75.32785 228.9641 C-77.91164 231.57337 -80.51783 234.15901 -83.12714 236.74277 C-83.88589 237.51627 -84.64465 238.28978 -85.4264 239.08672 C-86.12407 239.76999 -86.82175 240.45325 -87.54057 241.15722 C-87.84055 241.45725 -87.84055 241.45725 -89.35862 242.97561 C-89.94153 243.31108 -90.52443 243.64655 -91.125 243.99219 C-91.45513 243.8906 -91.45513 243.8906 -93.1258 243.37652 C-95.19567 241.94325 -96.91407 240.45619 -98.69661 238.67785 C-99.39142 237.98949 -100.08623 237.30113 -100.80209 236.59191 C-101.17986 236.21259 -101.17986 236.21259 -103.09163 234.29298 C-103.90021 233.48893 -104.7088 232.68488 -105.54188 231.85646 C-107.78541 229.62517 -110.02265 227.38766 -112.25889 225.14906 C-114.67177 222.73578 -117.09036 220.32823 -119.50818 217.91989 C-124.24288 213.20181 -128.97201 208.47817 -133.69896 203.75233 C-137.53899 199.91326 -141.38058 196.07577 -145.2233 192.23939 C-156.11081 181.36949 -166.99412 170.49541 -177.87208 159.61595 C-178.45852 159.02943 -179.04496 158.44292 -179.64917 157.83862 C-180.23632 157.25139 -180.82347 156.66416 -181.42842 156.05913 C-190.95559 146.53114 -200.49271 137.01319 -210.03436 127.49971 C-219.82454 117.73821 -229.60729 107.96932 -239.38228 98.1926 C-244.87327 92.70094 -250.36734 87.21243 -255.86939 81.73184 C-260.55119 77.06819 -265.22609 72.39776 -269.892 67.71822 C-272.27467 65.32899 -274.66052 62.94316 -277.05508 60.56584 C-279.64535 57.99404 -282.22001 55.40717 -284.79329 52.81837 C-285.55999 52.06196 -286.32669 51.30555 -287.11663 50.52621 C-287.45751 50.18073 -287.45751 50.18073 -289.1826 48.43237 C-289.77925 47.83615 -290.3759 47.23993 -290.99063 46.62565 C-291.36497 46.08661 -291.73931 45.54757 -292.125 44.99219 C-291.795 44.00219 -291.465 43.01219 -291.125 41.99219 C-289.11328 40.63281 -289.11328 40.63281 -286.4375 39.24219 C-285.44218 38.72189 -284.44687 38.20159 -283.42139 37.66553 C-282.32315 37.10664 -281.22434 36.54889 -280.125 35.99219 C-279.56557 35.70596 -279.00613 35.41972 -278.42975 35.12482 C-244.6403 17.85588 -209.62378 5.4891 -172.53418 -2.5072 C-160.82191 -4.94093 -149.00413 -6.63803 -137.125 -8.00781 C-136.0272 -8.13624 -134.9294 -8.26466 -133.79834 -8.39697 C-89.40785 -13.29878 -43.45886 -10.06085 0 0 Z " transform="translate(732.125,115.0078125)"/>
    <path d="M0 0 C1.83342 0.72432 1.83342 0.72432 4 2 C5.40972 3.23325 6.76988 4.52411 8.09307 5.84977 C8.90425 6.65759 9.71543 7.4654 10.55119 8.29769 C11.44582 9.19871 12.34035 10.09983 13.2348 11.00102 C14.18908 11.95514 15.1438 12.90882 16.09892 13.8621 C18.72411 16.48475 21.34302 19.11361 23.96096 21.74349 C26.78498 24.57819 29.61478 27.40711 32.44391 30.23671 C37.3471 35.14226 42.24666 40.05141 47.14385 44.96296 C54.23259 52.07237 61.32732 59.17579 68.42362 66.27765 C79.94726 77.81055 91.46679 89.34754 102.9834 100.88745 C103.32813 101.23288 103.32813 101.23288 105.07268 102.98095 C105.76298 103.67265 106.45328 104.36435 107.1645 105.07701 C116.94035 114.8726 126.71714 124.66723 136.49512 134.46069 C136.83882 134.80494 136.83882 134.80494 138.57817 136.54706 C150.04852 148.03544 161.5209 159.52178 172.99433 171.00708 C180.06925 178.08958 187.14209 185.17415 194.21222 192.26143 C199.06038 197.12117 203.91024 201.9792 208.76143 206.83591 C211.55863 209.63643 214.35498 212.43779 217.14909 215.24138 C219.71064 217.81161 222.27453 220.37948 224.84023 222.94555 C225.76442 223.8707 226.68776 224.7967 227.61013 225.72366 C232.40191 230.53834 237.23974 235.19974 242.49486 239.51454 C242.99156 240.00475 243.48825 240.49495 244 241 C244.33 241.99 244.66 242.98 245 244 C246.31984 244.69301 247.65554 245.35608 249 246 C250.87524 247.67993 250.87524 247.67993 252.78516 249.66016 C253.13288 250.01562 253.13288 250.01562 254.89258 251.81445 C255.60865 252.55631 256.32473 253.29816 257.0625 254.0625 C258.48615 255.53713 259.91435 257.00741 261.34766 258.47266 C261.66223 258.79883 261.66223 258.79883 263.25415 260.44946 C263.83028 260.96114 264.40641 261.47282 265 262 C265.99 262.33 266.98 262.66 268 263 C268.33 262.01 268.66 261.02 269 260 C270.47735 258.54352 270.47735 258.54352 272.40417 256.96626 C277.73459 252.43784 282.61244 247.5006 287.53325 242.5399 C288.57993 241.48863 289.62686 240.4376 290.674 239.38678 C292.93827 237.11356 295.20093 234.83874 297.46233 232.56267 C301.14246 228.85869 304.82619 225.15831 308.51041 221.4584 C313.16566 216.78286 317.82005 212.10645 322.47342 207.42902 C331.60834 198.24711 340.75073 189.07267 349.89595 179.90102 C351.33676 178.45598 352.77756 177.01094 354.21837 175.56591 C357.13445 172.64131 360.05056 169.71674 362.9667 166.7922 C370.45236 159.28492 377.93765 151.77727 385.42212 144.2688 C386.17291 143.51561 386.9237 142.76242 387.69724 141.9864 C399.88797 129.75599 412.06777 117.51474 424.24409 105.26998 C436.74641 92.69797 449.26196 80.13926 461.78958 67.59247 C469.51758 59.85174 477.23471 52.10048 484.93839 44.33555 C490.21028 39.02365 495.49478 33.72452 500.78956 28.43545 C503.84729 25.38022 506.89892 22.31947 509.93566 19.24336 C512.71185 16.43142 515.50348 13.63587 518.30865 10.85284 C519.32407 9.83971 520.3335 8.82053 521.33644 7.79505 C522.69413 6.40857 524.07134 5.04511 525.45591 3.68555 C525.83707 3.30279 525.83707 3.30279 527.76597 1.36579 C528.5032 0.91508 529.24043 0.46437 530 0 C530.44126 0.11275 530.44126 0.11275 532.67428 0.68332 C535 2 535 2 536.75555 3.38133 C537.28578 3.91219 537.81601 4.44305 538.3623 4.98999 C538.66792 5.29249 538.66792 5.29249 540.21454 6.82335 C540.5375 7.15091 540.5375 7.15091 542.17188 8.80859 C542.5128 9.14927 542.5128 9.14927 544.2381 10.87331 C545.68057 12.31811 547.11935 13.76661 548.55469 15.21851 C550.7199 17.40708 552.89787 19.58228 555.07812 21.75586 C562.50774 29.2011 569.50718 36.72619 576 45 C576.94558 46.11434 577.89876 47.22233 578.86328 48.32031 C595.355 67.15628 609.07466 88.83654 620.85449 110.87354 C621.94673 112.90111 623.06636 114.91066 624.19531 116.91797 C638.92293 143.41249 649.71525 172.81156 657.16797 202.15234 C658.96568 209.39571 660.52474 216.68501 662 224 C662.20561 225.00208 662.41121 226.00417 662.62305 227.03662 C663.95738 233.66449 665.04536 240.30755 666 247 C666.07477 247.50024 666.07477 247.50024 666.45312 250.03174 C670.92963 281.2467 671.2723 315.20555 667.8125 346.5625 C667.28635 350.72242 666.65938 354.85937 666 359 C665.74512 360.73773 665.49025 362.47546 665.23596 364.21327 C660.40948 396.76804 651.43196 428.72726 638.5 459 C637.03064 462.34768 635.52176 465.67587 634 469 C633.61908 469.84401 633.23816 470.68803 632.8457 471.55762 C621.11564 497.44769 606.66502 522.12732 589.13916 544.5415 C587.85859 546.18105 586.59171 547.83079 585.32422 549.48047 C580.51569 555.7049 575.60457 561.74309 570.26562 567.52344 C569.03393 568.8698 567.80946 570.22362 566.62598 571.61255 C561.36654 577.77298 555.6923 583.49382 549.96777 589.21753 C548.26205 590.92543 546.56451 592.64118 544.86719 594.35742 C538.22128 601.03706 531.3923 607.15765 524 613 C522.97212 613.863 521.9487 614.73139 520.93359 615.60938 C497.35617 635.82914 469.98914 652.58658 442.05859 666.07812 C440.70664 666.72068 439.35374 667.36122 438 668 C437.26024 668.35127 436.52048 668.70254 435.7583 669.06445 C413.22097 679.69341 390.05811 687.68104 366 694 C364.94651 694.27973 363.89303 694.55945 362.80762 694.84766 C349.0704 698.43467 335.29755 700.86367 321.25 702.8125 C320.87114 702.86521 320.87114 702.86521 318.95386 703.13193 C302.35574 705.41112 286.01947 706.18658 269.27222 706.1853 C266.09996 706.18747 262.92806 706.20565 259.75586 706.22461 C241.56924 706.27517 223.47572 705.1677 205.5 702.3125 C204.44144 702.14516 203.38288 701.97783 202.29224 701.80542 C168.04598 696.15525 134.07254 686.66337 102.38818 672.38525 C68.9233 657.10243 37.6734 638.01842 9.2793 614.57959 C-5.93548 601.90776 -21.16942 588.42054 -34.02344 573.3125 C-35.5913 571.47817 -37.18015 569.67289 -38.78906 567.875 C-51.79173 553.25434 -63.56871 537.55604 -74 521 C-74.44875 520.29037 -74.89751 519.58074 -75.35986 518.84961 C-94.20882 488.81009 -109.57881 456.47065 -120.0708 422.57031 C-129.33366 392.12656 -135.90705 359.81671 -137.11473 327.97502 C-137.17936 324.84641 -137.21618 321.71904 -137.23828 318.58984 C-137.24812 317.4363 -137.25796 316.28276 -137.2681 315.09427 C-137.29561 311.37535 -137.30705 307.65651 -137.3125 303.9375 C-137.3135 303.30213 -137.31451 302.66675 -137.31554 302.01213 C-137.33606 280.79005 -136.63272 259.95548 -133 239 C-132.87885 238.29736 -132.7577 237.59472 -132.63287 236.87079 C-129.13842 216.84764 -124.37382 197.30298 -118 178 C-117.65743 176.96118 -117.31486 175.92235 -116.96191 174.85205 C-106.91415 144.84454 -93.5181 115.33342 -76.25 88.75 C-74.95098 86.79442 -73.63781 84.85009 -72.31055 82.91357 C-70.94687 80.92242 -69.60541 78.91745 -68.26562 76.91016 C-60.63359 65.55245 -52.29539 54.85047 -43.5 44.375 C-43.30503 44.1422 -43.30503 44.1422 -42.31836 42.96411 C-34.02411 33.20647 -25.15098 23.98387 -16.08105 14.95068 C-14.46949 13.34459 -12.86349 11.73307 -11.25781 10.12109 C-10.22428 9.08822 -9.19044 8.05566 -8.15625 7.02344 C-7.91876 6.78494 -7.91876 6.78494 -6.71692 5.57797 C-4.99129 3.86457 -3.22153 2.20275 -1.42773 0.56104 C-0.95658 0.37589 -0.48543 0.19075 0 0 Z M7 155 C-0.18989 163.92732 -4.58284 175.83827 -9.24109 186.26855 C-19.29631 209.20941 -25.77834 233.34197 -29.78564 258.04126 C-33.75491 284.63094 -33.7257 311.309 -31 338 C-28.14425 362.7933 -22.17569 387.20826 -13.21875 410.50391 C-3.75412 434.30693 8.12378 456.95122 23.34839 477.58179 C25.2078 480.07349 27.10006 482.53914 29 485 C29.64711 485.84305 30.29422 486.68609 30.96094 487.55469 C35.85867 493.81179 41.15198 499.63722 46.56348 505.4458 C48.01199 507.01298 49.44187 508.59531 50.86719 510.18359 C55.96965 515.85788 61.13436 521.10179 67 526 C67.98115 526.86364 68.96013 527.72974 69.9375 528.59766 C85.41716 542.26119 102.04646 553.82832 120 564 C120.69738 564.40025 121.39477 564.80051 122.11328 565.21289 C141.99238 576.54205 164.06448 585.63387 186.1676 591.53064 C192.52886 593.16005 198.94793 594.53359 205.375 595.875 C206.06513 596.0207 206.75526 596.16641 207.46631 596.31653 C226.64591 600.31705 245.55875 601.38275 265.125 601.3125 C265.66586 601.31142 265.66586 601.31142 268.40292 601.30597 C284.15007 601.25563 299.48869 600.93108 315 598 C316.08829 597.80132 317.17658 597.60265 318.29785 597.39795 C343.48626 592.73615 367.66615 585.50847 390.86035 574.51367 C406.96101 566.7513 422.45214 558.46405 437 548 C437.28762 547.79383 437.28762 547.79383 438.74316 546.75049 C458.75667 532.29762 478.23967 515.30649 494.05078 496.33447 C495.73134 494.24676 497.36448 492.12306 499 490 C499.59941 489.29102 500.19883 488.58203 500.81641 487.85156 C512.76664 473.63104 522.38346 457.39997 531 441 C531.34192 440.36385 531.68385 439.7277 532.03613 439.07227 C543.47806 417.74817 551.88051 394.60057 557.43359 371.07031 C561.79022 351.66998 564.39225 331.87856 565 312 C565.02191 311.39978 565.04383 310.79956 565.06641 310.18115 C565.89169 284.90683 562.79954 259.17112 557.22998 234.53711 C551.3187 209.55825 542.05139 185.64917 530 163 C528.39932 160.28756 526.73948 157.62542 525 155 C523.27799 155.73634 523.27799 155.73634 521 157 C519.47066 158.3552 517.99329 159.76984 516.55217 161.21849 C516.11991 161.65025 515.68764 162.082 515.24228 162.52684 C513.79107 163.97878 512.34716 165.43776 510.90308 166.89679 C509.85521 167.94808 508.8069 168.99891 507.75817 170.04934 C504.87445 172.94025 501.99699 175.83732 499.12045 178.73537 C496.01847 181.85831 492.91063 184.97542 489.80338 188.09311 C484.41924 193.49667 479.03845 198.90355 473.65958 204.31236 C465.16356 212.85506 456.65722 221.38744 448.14917 229.91815 C445.24001 232.83531 442.33093 235.75254 439.42186 238.66978 C438.69487 239.3988 437.96789 240.12783 437.21887 240.87894 C428.94333 249.17798 420.66992 257.47914 412.39746 265.78125 C411.64116 266.54026 410.88485 267.29927 410.10563 268.08128 C397.83582 280.3955 385.5737 292.71736 373.3135 305.04115 C360.73593 317.68339 348.14695 330.31418 335.54804 342.93515 C327.77094 350.72673 320.0035 358.52769 312.24801 366.34078 C306.93834 371.68832 301.61795 377.02501 296.28883 382.35316 C293.21025 385.43186 290.13691 388.51536 287.07634 391.61197 C284.27881 394.44226 281.46802 397.25861 278.64567 400.06415 C277.62295 401.08571 276.60538 402.11246 275.59334 403.1446 C274.22482 404.53886 272.83939 405.91367 271.44783 407.28487 C270.67993 408.05614 269.91202 408.8274 269.12085 409.62204 C268.77091 409.84941 268.77091 409.84941 267 411 C266.34012 410.83352 265.68023 410.66703 265.00035 410.4955 C262.65194 408.73978 260.61916 406.86464 258.54658 404.78709 C258.11372 404.35594 257.68086 403.92478 257.23488 403.48056 C255.78166 402.03064 254.33572 400.57368 252.88962 399.11667 C251.84032 398.06681 250.79058 397.0174 249.74044 395.96839 C246.85284 393.08138 243.97151 390.18817 241.09114 387.29395 C237.98503 384.17512 234.87314 381.06207 231.7619 377.94836 C226.37094 372.55163 220.98355 367.15135 215.59845 361.74878 C207.81127 353.93652 200.01766 346.13073 192.22224 338.3267 C179.57385 325.66418 166.9292 312.99792 154.2876 300.32861 C153.53077 299.57013 152.77394 298.81164 151.99417 298.03017 C146.62102 292.64521 141.24799 287.26012 135.875 281.875 C129.73398 275.72012 123.5929 269.56531 117.45166 263.41064 C116.69514 262.65247 115.93863 261.8943 115.15919 261.11316 C102.56295 248.48958 89.96281 235.86991 77.35987 223.25303 C69.58007 215.46425 61.80386 207.67192 54.03218 199.87505 C48.71199 194.53806 43.38831 189.20456 38.06182 183.87385 C34.98461 180.79394 31.90912 177.71236 28.83793 174.62644 C26.03082 171.80591 23.21922 168.98994 20.40387 166.17765 C19.38201 165.15524 18.36188 164.13111 17.34358 163.10517 C15.9675 161.71923 14.5855 160.33949 13.20173 158.96123 C12.43307 158.19072 11.66441 157.42021 10.87245 156.62635 C10.5635 156.35801 10.5635 156.35801 9 155 C8.34 155 7.68 155 7 155 Z " transform="translate(374,205)"/>
    <polygon points="531,360 748,360 639.5,468" fill="#000000"/>
  </g>
</svg>
